<?xml version="1.0" encoding="UTF-8" standalone="no"?>
<svg
   xmlns:dc="http://purl.org/dc/elements/1.1/"
   xmlns:cc="http://creativecommons.org/ns#"
   xmlns:rdf="http://www.w3.org/1999/02/22-rdf-syntax-ns#"
   xmlns:svg="http://www.w3.org/2000/svg"
   xmlns="http://www.w3.org/2000/svg"
   xmlns:sodipodi="http://sodipodi.sourceforge.net/DTD/sodipodi-0.dtd"
   xmlns:inkscape="http://www.inkscape.org/namespaces/inkscape"
   fill="#000000"
   height="800px"
   width="800px"
   version="1.1"
   id="Capa_1"
   viewBox="0 0 407.484 407.484"
   xml:space="preserve"
   sodipodi:docname="code-and-pastries-logo.svg"
   inkscape:version="1.0.2 (e86c8708, 2021-01-15)"><metadata
   id="metadata25"><rdf:RDF><cc:Work
       rdf:about=""><dc:format>image/svg+xml</dc:format><dc:type
         rdf:resource="http://purl.org/dc/dcmitype/StillImage" /><dc:title></dc:title></cc:Work></rdf:RDF></metadata><defs
   id="defs23" /><sodipodi:namedview
   pagecolor="#ffffff"
   bordercolor="#666666"
   borderopacity="1"
   objecttolerance="10"
   gridtolerance="10"
   guidetolerance="10"
   inkscape:pageopacity="0"
   inkscape:pageshadow="2"
   inkscape:window-width="1539"
   inkscape:window-height="1027"
   id="namedview21"
   showgrid="false"
   inkscape:zoom="0.75625"
   inkscape:cx="400"
   inkscape:cy="500.97215"
   inkscape:window-x="0"
   inkscape:window-y="25"
   inkscape:window-maximized="0"
   inkscape:current-layer="Capa_1" />
<path
   d="M378.939,16.564H28.544C12.805,16.564,0,29.369,0,45.108v219.985c0,15.739,12.805,28.544,28.544,28.544h131.46  l-7.197,33.431h-24.994c-3.723,0-7.278,1.546-9.818,4.268l-34.512,37c-3.646,3.909-4.627,9.608-2.495,14.51  c2.131,4.902,6.967,8.073,12.313,8.073h220.885c0.006-0.001,0.015-0.001,0.02,0c7.415,0,13.427-6.011,13.427-13.426  c0-3.766-1.55-7.168-4.047-9.606l-34.094-36.551c-2.54-2.723-6.096-4.268-9.818-4.268h-24.994l-7.197-33.431h131.459  c15.74,0,28.545-12.805,28.545-28.544V45.108C407.484,29.369,394.68,16.564,378.939,16.564z M371.242,259.737h-335V50.465h335  V259.737z"
   id="path10" />
<path
   d="m 253.54782,120.43902 c -4.14378,-0.0326 -7.78849,-2.60283 -9.06975,-6.3954 -5.48362,-16.232707 -22.39828,-28.292875 -42.69631,-28.292875 -20.2695,0 -37.20471,12.035257 -42.69662,28.292875 -1.28126,3.79229 -4.92627,6.36283 -9.06913,6.39513 -23.4317,0.18916 -35.65689,25.5433 -19.19835,40.79296 3.96402,3.67321 8.98447,6.06554 14.47208,6.96865 l 8.77281,50.32776 c 0.43343,2.48513 2.83092,4.3179 5.64927,4.3179 3.48121,0 82.00711,0 84.14142,0 2.81804,0 5.21584,-1.83277 5.64926,-4.3179 l 8.77282,-50.32776 c 5.4873,-0.90311 10.50775,-3.29571 14.47208,-6.96865 16.46529,-15.25732 4.21463,-40.60325 -19.19958,-40.79269 z m -88.94071,92.20288 -7.6753,-44.03201 h 21.26918 l 5.21093,44.03173 h -18.80481 z m 44.04628,0 h -13.74418 l -5.21062,-44.03201 h 24.16573 z m 30.30272,0 H 220.151 l 5.21092,-44.03174 h 21.26948 z m 25.55466,-58.48943 c -2.96037,2.743 -6.93942,4.25302 -11.20467,4.25302 -1.84075,0 -101.22878,0 -103.0496,0 -4.26525,0 -8.2443,-1.51029 -11.20467,-4.25302 -9.50991,-8.811 -2.39626,-23.41104 11.06388,-23.50987 9.17771,-0.0725 17.18152,-5.55936 19.91582,-13.6534 4.05727,-12.00871 16.59535,-21.034055 31.74962,-21.034055 15.07973,0 27.67026,8.959375 31.74962,21.034055 2.7346,8.09431 10.73841,13.58113 19.91643,13.65368 13.5218,0.0994 20.53882,14.73117 11.06357,23.50959 z"
   id="path12"
   style="stroke-width:1" />
			
			
			
</svg>
