<svg width="100%" height="100%" id="svg" viewBox="0 0 1440 600" xmlns="http://www.w3.org/2000/svg" class="transition duration-300 ease-in-out delay-150"><defs><linearGradient id="gradient" x1="0%" y1="50%" x2="100%" y2="50%"><stop offset="5%" stop-color="#ff6900"></stop><stop offset="95%" stop-color="#fcb900"></stop></linearGradient></defs><path d="M 0,600 C 0,600 0,200 0,200 C 61.75641025641025,188.44102564102565 123.5128205128205,176.88205128205126 203,158 C 282.4871794871795,139.11794871794874 379.7051282051283,112.9128205128205 482,129 C 584.2948717948717,145.0871794871795 691.6666666666666,203.4666666666667 759,230 C 826.3333333333334,256.5333333333333 853.6282051282052,251.22051282051282 927,225 C 1000.3717948717948,198.77948717948718 1119.8205128205127,151.65128205128204 1213,144 C 1306.1794871794873,136.34871794871796 1373.0897435897436,168.174358974359 1440,200 C 1440,200 1440,600 1440,600 Z" stroke="none" stroke-width="0" fill="url(#gradient)" fill-opacity="0.53" class="transition-all duration-300 ease-in-out delay-150 path-0" transform="rotate(-180 720 300)"></path><defs><linearGradient id="gradient" x1="0%" y1="50%" x2="100%" y2="50%"><stop offset="5%" stop-color="#ff6900"></stop><stop offset="95%" stop-color="#fcb900"></stop></linearGradient></defs><path d="M 0,600 C 0,600 0,400 0,400 C 75.44102564102565,372.6435897435897 150.8820512820513,345.28717948717946 239,336 C 327.1179487179487,326.71282051282054 427.91282051282053,335.49487179487176 512,365 C 596.0871794871795,394.50512820512824 663.4666666666666,444.73333333333335 740,453 C 816.5333333333334,461.26666666666665 902.220512820513,427.57179487179485 981,411 C 1059.779487179487,394.42820512820515 1131.651282051282,394.9794871794872 1207,396 C 1282.348717948718,397.0205128205128 1361.1743589743592,398.5102564102564 1440,400 C 1440,400 1440,600 1440,600 Z" stroke="none" stroke-width="0" fill="url(#gradient)" fill-opacity="1" class="transition-all duration-300 ease-in-out delay-150 path-1" transform="rotate(-180 720 300)"></path></svg>